<mxfile host="app.diagrams.net" modified="2021-01-16T18:03:42.964Z" agent="5.0 (Windows NT 10.0; WOW64) AppleWebKit/537.36 (KHTML, like Gecko) Chrome/87.0.4280.107 Safari/537.36" etag="2rE2Q7024D9iakWcmYmT" version="14.2.4" type="github">
  <diagram name="Page-1" id="0783ab3e-0a74-02c8-0abd-f7b4e66b4bec">
    <mxGraphModel dx="1302" dy="821" grid="1" gridSize="10" guides="1" tooltips="1" connect="1" arrows="1" fold="1" page="1" pageScale="1" pageWidth="850" pageHeight="1100" background="#ffffff" math="0" shadow="0">
      <root>
        <mxCell id="0" />
        <mxCell id="1" parent="0" />
        <mxCell id="2VYDYfmF4YnGPcApVc2n-1" value="Ajout de session via l&#39;application" style="swimlane;html=1;childLayout=stackLayout;startSize=20;rounded=0;shadow=0;comic=0;labelBackgroundColor=none;strokeWidth=1;fontFamily=Verdana;fontSize=12;align=center;" parent="1" vertex="1">
          <mxGeometry x="40" y="20" width="1270" height="700" as="geometry">
            <mxRectangle x="40" y="20" width="60" height="20" as="alternateBounds" />
          </mxGeometry>
        </mxCell>
        <mxCell id="2VYDYfmF4YnGPcApVc2n-2" value="Utilisateur" style="swimlane;html=1;startSize=20;" parent="2VYDYfmF4YnGPcApVc2n-1" vertex="1">
          <mxGeometry y="20" width="250" height="680" as="geometry" />
        </mxCell>
        <mxCell id="2VYDYfmF4YnGPcApVc2n-3" value="" style="ellipse;whiteSpace=wrap;html=1;rounded=0;shadow=0;comic=0;labelBackgroundColor=none;strokeWidth=1;fillColor=#000000;fontFamily=Verdana;fontSize=12;align=center;" parent="2VYDYfmF4YnGPcApVc2n-2" vertex="1">
          <mxGeometry x="100" y="30" width="40" height="40" as="geometry" />
        </mxCell>
        <mxCell id="2VYDYfmF4YnGPcApVc2n-5" value="Smartphone" style="swimlane;html=1;startSize=20;" parent="2VYDYfmF4YnGPcApVc2n-1" vertex="1">
          <mxGeometry x="250" y="20" width="250" height="680" as="geometry" />
        </mxCell>
        <mxCell id="2VYDYfmF4YnGPcApVc2n-10" value="Allume son smartphone" style="rounded=1;whiteSpace=wrap;html=1;shadow=0;comic=0;labelBackgroundColor=none;strokeWidth=1;fontFamily=Verdana;fontSize=12;align=center;arcSize=50;" parent="2VYDYfmF4YnGPcApVc2n-5" vertex="1">
          <mxGeometry x="35" y="64" width="200" height="26" as="geometry" />
        </mxCell>
        <mxCell id="2VYDYfmF4YnGPcApVc2n-47" value="Choisit le fichier session" style="rounded=1;whiteSpace=wrap;html=1;shadow=0;comic=0;labelBackgroundColor=none;strokeWidth=1;fontFamily=Verdana;fontSize=12;align=center;arcSize=50;" parent="2VYDYfmF4YnGPcApVc2n-5" vertex="1">
          <mxGeometry x="50" y="292" width="170" height="30" as="geometry" />
        </mxCell>
        <mxCell id="2VYDYfmF4YnGPcApVc2n-11" value="Application" style="swimlane;html=1;startSize=20;" parent="2VYDYfmF4YnGPcApVc2n-1" vertex="1">
          <mxGeometry x="500" y="20" width="250" height="680" as="geometry" />
        </mxCell>
        <mxCell id="2VYDYfmF4YnGPcApVc2n-42" style="edgeStyle=orthogonalEdgeStyle;rounded=0;orthogonalLoop=1;jettySize=auto;html=1;entryX=0.5;entryY=0;entryDx=0;entryDy=0;" parent="2VYDYfmF4YnGPcApVc2n-11" source="2VYDYfmF4YnGPcApVc2n-13" target="2VYDYfmF4YnGPcApVc2n-6" edge="1">
          <mxGeometry relative="1" as="geometry" />
        </mxCell>
        <mxCell id="2VYDYfmF4YnGPcApVc2n-13" value="Lance l&#39;application BanDuke" style="rounded=1;whiteSpace=wrap;html=1;shadow=0;comic=0;labelBackgroundColor=none;strokeWidth=1;fontFamily=Verdana;fontSize=12;align=center;arcSize=50;" parent="2VYDYfmF4YnGPcApVc2n-11" vertex="1">
          <mxGeometry x="25" y="112" width="200" height="26" as="geometry" />
        </mxCell>
        <mxCell id="2VYDYfmF4YnGPcApVc2n-44" style="edgeStyle=orthogonalEdgeStyle;rounded=0;orthogonalLoop=1;jettySize=auto;html=1;entryX=0.5;entryY=0;entryDx=0;entryDy=0;" parent="2VYDYfmF4YnGPcApVc2n-11" source="2VYDYfmF4YnGPcApVc2n-6" target="2VYDYfmF4YnGPcApVc2n-43" edge="1">
          <mxGeometry relative="1" as="geometry" />
        </mxCell>
        <mxCell id="2VYDYfmF4YnGPcApVc2n-6" value="Login" style="rounded=1;whiteSpace=wrap;html=1;shadow=0;comic=0;labelBackgroundColor=none;strokeWidth=1;fontFamily=Verdana;fontSize=12;align=center;arcSize=50;" parent="2VYDYfmF4YnGPcApVc2n-11" vertex="1">
          <mxGeometry x="40" y="152" width="170" height="30" as="geometry" />
        </mxCell>
        <mxCell id="2VYDYfmF4YnGPcApVc2n-46" style="edgeStyle=orthogonalEdgeStyle;rounded=0;orthogonalLoop=1;jettySize=auto;html=1;" parent="2VYDYfmF4YnGPcApVc2n-11" source="2VYDYfmF4YnGPcApVc2n-43" target="2VYDYfmF4YnGPcApVc2n-45" edge="1">
          <mxGeometry relative="1" as="geometry" />
        </mxCell>
        <mxCell id="2VYDYfmF4YnGPcApVc2n-43" value="Ouvre son profil" style="rounded=1;whiteSpace=wrap;html=1;shadow=0;comic=0;labelBackgroundColor=none;strokeWidth=1;fontFamily=Verdana;fontSize=12;align=center;arcSize=50;" parent="2VYDYfmF4YnGPcApVc2n-11" vertex="1">
          <mxGeometry x="40" y="195" width="170" height="30" as="geometry" />
        </mxCell>
        <mxCell id="2VYDYfmF4YnGPcApVc2n-45" value="Ajoute une session" style="rounded=1;whiteSpace=wrap;html=1;shadow=0;comic=0;labelBackgroundColor=none;strokeWidth=1;fontFamily=Verdana;fontSize=12;align=center;arcSize=50;" parent="2VYDYfmF4YnGPcApVc2n-11" vertex="1">
          <mxGeometry x="40" y="239" width="170" height="30" as="geometry" />
        </mxCell>
        <mxCell id="2VYDYfmF4YnGPcApVc2n-60" style="edgeStyle=orthogonalEdgeStyle;rounded=0;orthogonalLoop=1;jettySize=auto;html=1;" parent="2VYDYfmF4YnGPcApVc2n-11" source="2VYDYfmF4YnGPcApVc2n-57" target="2VYDYfmF4YnGPcApVc2n-59" edge="1">
          <mxGeometry relative="1" as="geometry" />
        </mxCell>
        <mxCell id="2VYDYfmF4YnGPcApVc2n-57" value="Envoi de la session traitée à l&#39;aplication, affichage des données sur l&#39;app" style="rounded=1;whiteSpace=wrap;html=1;shadow=0;comic=0;labelBackgroundColor=none;strokeWidth=1;fontFamily=Verdana;fontSize=12;align=center;arcSize=50;" parent="2VYDYfmF4YnGPcApVc2n-11" vertex="1">
          <mxGeometry x="40" y="552" width="170" height="48" as="geometry" />
        </mxCell>
        <mxCell id="2VYDYfmF4YnGPcApVc2n-59" value="" style="shape=mxgraph.bpmn.shape;html=1;verticalLabelPosition=bottom;labelBackgroundColor=#ffffff;verticalAlign=top;perimeter=ellipsePerimeter;outline=end;symbol=terminate;rounded=0;shadow=0;comic=0;strokeWidth=1;fontFamily=Verdana;fontSize=12;align=center;" parent="2VYDYfmF4YnGPcApVc2n-11" vertex="1">
          <mxGeometry x="105" y="620" width="40" height="40" as="geometry" />
        </mxCell>
        <mxCell id="2VYDYfmF4YnGPcApVc2n-14" value="Serveur Java" style="swimlane;html=1;startSize=20;" parent="2VYDYfmF4YnGPcApVc2n-1" vertex="1">
          <mxGeometry x="750" y="20" width="270" height="680" as="geometry" />
        </mxCell>
        <mxCell id="2VYDYfmF4YnGPcApVc2n-52" style="edgeStyle=orthogonalEdgeStyle;rounded=0;orthogonalLoop=1;jettySize=auto;html=1;entryX=0.5;entryY=0;entryDx=0;entryDy=0;" parent="2VYDYfmF4YnGPcApVc2n-14" source="2VYDYfmF4YnGPcApVc2n-49" target="2VYDYfmF4YnGPcApVc2n-51" edge="1">
          <mxGeometry relative="1" as="geometry" />
        </mxCell>
        <mxCell id="2VYDYfmF4YnGPcApVc2n-49" value="Envoi du fichier au serveur via l&#39;application" style="rounded=1;whiteSpace=wrap;html=1;shadow=0;comic=0;labelBackgroundColor=none;strokeWidth=1;fontFamily=Verdana;fontSize=12;align=center;arcSize=50;" parent="2VYDYfmF4YnGPcApVc2n-14" vertex="1">
          <mxGeometry x="50" y="345" width="170" height="40" as="geometry" />
        </mxCell>
        <mxCell id="2VYDYfmF4YnGPcApVc2n-51" value="Traitement du fichier brut" style="rounded=1;whiteSpace=wrap;html=1;shadow=0;comic=0;labelBackgroundColor=none;strokeWidth=1;fontFamily=Verdana;fontSize=12;align=center;arcSize=50;" parent="2VYDYfmF4YnGPcApVc2n-14" vertex="1">
          <mxGeometry x="50" y="405" width="170" height="25" as="geometry" />
        </mxCell>
        <mxCell id="2VYDYfmF4YnGPcApVc2n-55" value="Récupération session avec l&#39;auto-ID rempli" style="rounded=1;whiteSpace=wrap;html=1;shadow=0;comic=0;labelBackgroundColor=none;strokeWidth=1;fontFamily=Verdana;fontSize=12;align=center;arcSize=50;" parent="2VYDYfmF4YnGPcApVc2n-14" vertex="1">
          <mxGeometry x="50" y="500" width="170" height="32.5" as="geometry" />
        </mxCell>
        <mxCell id="2VYDYfmF4YnGPcApVc2n-30" value="Base de données MySQL" style="swimlane;html=1;startSize=20;" parent="2VYDYfmF4YnGPcApVc2n-1" vertex="1">
          <mxGeometry x="1020" y="20" width="250" height="680" as="geometry" />
        </mxCell>
        <mxCell id="2VYDYfmF4YnGPcApVc2n-53" value="Enregistrement de la session en BD" style="rounded=1;whiteSpace=wrap;html=1;shadow=0;comic=0;labelBackgroundColor=none;strokeWidth=1;fontFamily=Verdana;fontSize=12;align=center;arcSize=50;" parent="2VYDYfmF4YnGPcApVc2n-30" vertex="1">
          <mxGeometry x="40" y="452.5" width="170" height="32.5" as="geometry" />
        </mxCell>
        <mxCell id="2VYDYfmF4YnGPcApVc2n-31" style="edgeStyle=orthogonalEdgeStyle;rounded=0;html=1;labelBackgroundColor=none;startArrow=none;startFill=0;startSize=5;endArrow=classicThin;endFill=1;endSize=5;jettySize=auto;orthogonalLoop=1;strokeWidth=1;fontFamily=Verdana;fontSize=12;entryX=0.5;entryY=0;entryDx=0;entryDy=0;" parent="2VYDYfmF4YnGPcApVc2n-1" source="2VYDYfmF4YnGPcApVc2n-3" target="2VYDYfmF4YnGPcApVc2n-10" edge="1">
          <mxGeometry relative="1" as="geometry">
            <Array as="points">
              <mxPoint x="385" y="70" />
            </Array>
          </mxGeometry>
        </mxCell>
        <mxCell id="2VYDYfmF4YnGPcApVc2n-41" style="edgeStyle=orthogonalEdgeStyle;rounded=0;orthogonalLoop=1;jettySize=auto;html=1;entryX=0.5;entryY=0;entryDx=0;entryDy=0;endArrow=classic;endFill=1;exitX=0.5;exitY=1;exitDx=0;exitDy=0;" parent="2VYDYfmF4YnGPcApVc2n-1" source="2VYDYfmF4YnGPcApVc2n-10" target="2VYDYfmF4YnGPcApVc2n-13" edge="1">
          <mxGeometry relative="1" as="geometry">
            <Array as="points">
              <mxPoint x="385" y="120" />
              <mxPoint x="625" y="120" />
            </Array>
          </mxGeometry>
        </mxCell>
        <mxCell id="2VYDYfmF4YnGPcApVc2n-48" style="edgeStyle=orthogonalEdgeStyle;rounded=0;orthogonalLoop=1;jettySize=auto;html=1;entryX=0.5;entryY=0;entryDx=0;entryDy=0;exitX=0.5;exitY=1;exitDx=0;exitDy=0;" parent="2VYDYfmF4YnGPcApVc2n-1" source="2VYDYfmF4YnGPcApVc2n-45" target="2VYDYfmF4YnGPcApVc2n-47" edge="1">
          <mxGeometry relative="1" as="geometry">
            <Array as="points">
              <mxPoint x="625" y="300" />
              <mxPoint x="385" y="300" />
            </Array>
          </mxGeometry>
        </mxCell>
        <mxCell id="2VYDYfmF4YnGPcApVc2n-50" style="edgeStyle=orthogonalEdgeStyle;rounded=0;orthogonalLoop=1;jettySize=auto;html=1;exitX=0.5;exitY=1;exitDx=0;exitDy=0;" parent="2VYDYfmF4YnGPcApVc2n-1" source="2VYDYfmF4YnGPcApVc2n-47" edge="1">
          <mxGeometry relative="1" as="geometry">
            <mxPoint x="885" y="365" as="targetPoint" />
            <Array as="points">
              <mxPoint x="385" y="350" />
              <mxPoint x="885" y="350" />
            </Array>
          </mxGeometry>
        </mxCell>
        <mxCell id="2VYDYfmF4YnGPcApVc2n-54" style="edgeStyle=orthogonalEdgeStyle;rounded=0;orthogonalLoop=1;jettySize=auto;html=1;entryX=0.5;entryY=0;entryDx=0;entryDy=0;exitX=0.5;exitY=1;exitDx=0;exitDy=0;" parent="2VYDYfmF4YnGPcApVc2n-1" source="2VYDYfmF4YnGPcApVc2n-51" target="2VYDYfmF4YnGPcApVc2n-53" edge="1">
          <mxGeometry relative="1" as="geometry">
            <Array as="points">
              <mxPoint x="885" y="460" />
              <mxPoint x="1145" y="460" />
            </Array>
          </mxGeometry>
        </mxCell>
        <mxCell id="2VYDYfmF4YnGPcApVc2n-56" style="edgeStyle=orthogonalEdgeStyle;rounded=0;orthogonalLoop=1;jettySize=auto;html=1;exitX=0.5;exitY=1;exitDx=0;exitDy=0;" parent="2VYDYfmF4YnGPcApVc2n-1" source="2VYDYfmF4YnGPcApVc2n-53" target="2VYDYfmF4YnGPcApVc2n-55" edge="1">
          <mxGeometry relative="1" as="geometry">
            <Array as="points">
              <mxPoint x="1145" y="510" />
              <mxPoint x="885" y="510" />
            </Array>
          </mxGeometry>
        </mxCell>
        <mxCell id="2VYDYfmF4YnGPcApVc2n-58" style="edgeStyle=orthogonalEdgeStyle;rounded=0;orthogonalLoop=1;jettySize=auto;html=1;exitX=0.5;exitY=1;exitDx=0;exitDy=0;" parent="2VYDYfmF4YnGPcApVc2n-1" source="2VYDYfmF4YnGPcApVc2n-55" target="2VYDYfmF4YnGPcApVc2n-57" edge="1">
          <mxGeometry relative="1" as="geometry">
            <Array as="points">
              <mxPoint x="885" y="560" />
              <mxPoint x="625" y="560" />
            </Array>
          </mxGeometry>
        </mxCell>
      </root>
    </mxGraphModel>
  </diagram>
</mxfile>
